# xmcd
#
# Track frame offsets: 
#        150
#        17713
#        34297
#        51043
#        66708
#        83689
#        99608
#        111803
#        127820
#        142833
#        192653
#        206249
#        223836
#
# Disc length: 3366 seconds
#
# Revision: 0
# Processed by: cddbd v1.5.2PL0 Copyright (c) Steve Scherf et al.
# Submitted via: ExactAudioCopy v0.99pb4
#
DISCID=c40d240d
DTITLE=Deer Tick - Born on Flag Day
DYEAR=2009
DGENRE=Indie
TTITLE0=Easy
TTITLE1=Little White Lies
TTITLE2=Smith Hill
TTITLE3=Song About a Man
TTITLE4=Houston, TX
TTITLE5=Straight Into a Storm
TTITLE6=Friday XIII
TTITLE7=The Ghost
TTITLE8=Hell On Earth
TTITLE9=Stung
TTITLE10=Art Isn't Real (City of Sin)
TTITLE11=Hell On Earth (Demo)
TTITLE12=Stung and You Belong to Me Medly (Demo)
EXTD=
EXTT0=
EXTT1=
EXTT2=
EXTT3=
EXTT4=
EXTT5=
EXTT6=
EXTT7=
EXTT8=
EXTT9=
EXTT10=
EXTT11=
EXTT12=
PLAYORDER=
